<?xml version="1.0" encoding="UTF-8" standalone="no"?>
<svg
   xmlns:dc="http://purl.org/dc/elements/1.1/"
   xmlns:cc="http://creativecommons.org/ns#"
   xmlns:rdf="http://www.w3.org/1999/02/22-rdf-syntax-ns#"
   xmlns:svg="http://www.w3.org/2000/svg"
   xmlns="http://www.w3.org/2000/svg"
   id="svg3454"
   preserveAspectRatio="xMidYMid meet"
   viewBox="0 0 64.000000 64.000000"
   height="64.000000pt"
   width="64.000000pt"
   version="1.0">
  <defs
     id="defs3464" />
  <metadata
     id="metadata3456">
Created by potrace 1.11, written by Peter Selinger 2001-2013
<rdf:RDF>
  <cc:Work
     rdf:about="">
    <dc:format>image/svg+xml</dc:format>
    <dc:type
       rdf:resource="http://purl.org/dc/dcmitype/StillImage" />
    <dc:title></dc:title>
  </cc:Work>
</rdf:RDF>
</metadata>
  <g
     id="g3458"
     stroke="none"
     fill="#000000"
     transform="translate(0.000000,64.000000) scale(0.100000,-0.100000)">
    <path
       id="path3460"
       d="M47 572 c-34 -35 -34 -42 -1 -42 26 0 26 -1 18 -42 -5 -24 -9 -73 -9 -110 1 -81 15 -105 101 -164 89 -61 84 -114 -10 -114 -41 -1 -41 -1 -16 -15 14 -8 21 -15 15 -15 -5 -1 3 -7 19 -14 19 -9 41 -10 64 -5 19 4 41 5 48 2 8 -3 14 0 14 6 0 6 -4 11 -10 11 -15 0 -12 26 5 40 8 7 15 23 15 36 0 13 7 25 18 28 49 14 156 17 226 6 81 -14 111 -8 57 11 -24 9 -30 15 -26 30 7 20 10 18 -93 39 -37 7 -80 28 -145 71 -131 88 -146 103 -153 163 -5 36 -15 59 -35 78 -35 36 -68 35 -102 0z" />
  </g>
</svg>
